<svg xmlns="http://www.w3.org/2000/svg" viewBox="0 0 256 256">
  <g>
    <path d="m 16,0 l 224,0 a 16,16 0 0 1 16,16 l 0,224 a 16,16 0 0 1 -16,16 l -224,0 a 16,16 0 0 1 -16,-16 l 0,-224 a 16,16 0 0 1 16,-16 m -16,0 m 67.312,213.932 19.591,-11.856 C 90.682,208.777 94.121,214.447 102.367,214.447 c 7.905,0 12.889,-3.092 12.889,-15.120 l 0,-81.798 24.057,0 0,82.138 c 0,24.917 -14.606,36.259 -35.915,36.259 -19.245,0 -30.416,-9.967 -36.087,-21.996 m 81.270,0 19.589,-11.342 c 5.157,8.421 11.858,14.607 23.715,14.607 9.968,0 16.325,-4.984 16.325,-11.858 0,-8.248 -6.530,-11.170 -17.528,-15.980 l -6.013,-2.579 c -17.357,-7.388 -28.871,-16.667 -28.871,-36.258 0,-18.043 13.747,-31.792 35.228,-31.792 15.294,0 26.292,5.328 34.196,19.247 l -18.731,12.028 c -4.124,-7.388 -8.591,-10.310 -15.465,-10.310 -7.046,0 -11.514,4.468 -11.514,10.310 0,7.218 4.468,10.139 14.778,14.608 l 6.014,2.577 c 20.450,8.764 31.963,17.700 31.963,37.804 0,21.653 -17.012,33.510 -39.867,33.510 -22.340,0 -36.775,-10.653 -43.819,-24.573" fill="black" fill-rule="evenodd"/>
  </g>
</svg>
